<?xml version="1.0" encoding="UTF-8" standalone="no"?>
<!-- Created with Inkscape (http://www.inkscape.org/) -->

<svg
   xmlns:dc="http://purl.org/dc/elements/1.1/"
   xmlns:cc="http://creativecommons.org/ns#"
   xmlns:rdf="http://www.w3.org/1999/02/22-rdf-syntax-ns#"
   xmlns:svg="http://www.w3.org/2000/svg"
   xmlns="http://www.w3.org/2000/svg"
   xmlns:sodipodi="http://sodipodi.sourceforge.net/DTD/sodipodi-0.dtd"
   xmlns:inkscape="http://www.inkscape.org/namespaces/inkscape"
   width="1200"
   height="300"
   viewBox="0 0 1200 300"
   id="svg2"
   version="1.1"
   inkscape:version="0.91 r13725"
   inkscape:export-filename="/Users/ThomasLeese/Documents/SR/rooster/rooster/static/images/logo.png"
   inkscape:export-xdpi="180"
   inkscape:export-ydpi="180"
   sodipodi:docname="logo.svg">
  <defs
     id="defs4" />
  <sodipodi:namedview
     id="base"
     pagecolor="#ffffff"
     bordercolor="#666666"
     borderopacity="1.0"
     inkscape:pageopacity="0.0"
     inkscape:pageshadow="2"
     inkscape:zoom="0.7071068"
     inkscape:cx="544.4608"
     inkscape:cy="110.9702"
     inkscape:document-units="px"
     inkscape:current-layer="layer1"
     showgrid="false"
     units="px"
     inkscape:window-width="1280"
     inkscape:window-height="720"
     inkscape:window-x="0"
     inkscape:window-y="1"
     inkscape:window-maximized="1" />
  <metadata
     id="metadata7">
    <rdf:RDF>
      <cc:Work
         rdf:about="">
        <dc:format>image/svg+xml</dc:format>
        <dc:type
           rdf:resource="http://purl.org/dc/dcmitype/StillImage" />
        <dc:title></dc:title>
      </cc:Work>
    </rdf:RDF>
  </metadata>
  <g
     inkscape:label="Layer 1"
     inkscape:groupmode="layer"
     id="layer1"
     transform="translate(0,-752.36213)">
    <g
       id="Dibujo"
       transform="matrix(2.884574,0,0,2.8845752,-25.176294,760.88943)">
      <g
         id="g4173">
        <path
           id="path4175"
           d="m 72,26.001 c 1.104,0 2,-0.896 2,-2 0,-1.104 -0.896,-2 -2,-2 -7.039,0 -12.864,5.227 -13.84,12 l -2.021,0 c 0.989,-7.88 7.718,-14 15.861,-14 1.104,0 2,-0.896 2,-2 0,-1.104 -0.896,-2 -2,-2 -10.354,0 -18.892,7.907 -19.898,18 l -8.102,0 0,-10 c 0,-1.481 -0.412,-2.864 -1.116,-4.056 l 1.53,-1.53 c 0.781,-0.781 0.781,-2.047 0,-2.828 -0.781,-0.781 -2.047,-0.781 -2.828,0 l -1.53,1.53 C 39.421,16.741 38.732,16.453 38,16.265 l 0,-2.264 c 0,-1.104 -0.896,-2 -2,-2 -1.105,0 -2,0.896 -2,2 l 0,2.264 c -0.731,0.188 -1.421,0.476 -2.056,0.852 l -1.53,-1.53 c -0.781,-0.781 -2.047,-0.781 -2.828,0 -0.781,0.781 -0.781,2.047 0,2.828 l 1.53,1.53 c -0.543,0.918 -0.908,1.951 -1.047,3.056 l -4.069,0 c -0.928,0 -1.733,0.638 -1.946,1.54 -0.213,0.903 0.223,1.834 1.052,2.249 l 4.894,2.447 0,6.764 c 0,10.354 7.907,18.892 18,19.898 0.12681,38.120939 0,-11.504642 0,26.101 0,1.104 0.895,2 2,2 1.104,0 2,-0.896 2,-2 -0.482799,-64.473911 0,10.031545 0,-26.101 10.093,-1.007 18,-9.545 18,-19.898 0,-2.206 1.794,-4 4,-4 1.104,0 2,-0.896 2,-2 0,-1.104 -0.896,-2 -2,-2 -3.72,0 -6.845,2.556 -7.736,6 l -2.062,0 c 0.929,-4.559 4.969,-8 9.798,-8 z m -20.556,12 c -0.693,1.189 -1.969,2 -3.443,2 -1.475,0 -2.75,-0.811 -3.443,-2 z m 12.432,0 c -0.988,7.882 -7.731,14 -15.876,14 -8.822,0 -16,-7.178 -16,-16 l 0,-12 c 0,-2.206 1.794,-4 4,-4 2.206,0 4,1.794 4,4 l 0,12 c 0,0.007 0.002,0.013 0.002,0.02 0.011,4.402 3.595,7.98 7.999,7.98 3.72,0 6.845,-2.556 7.736,-6 z"
           inkscape:connector-curvature="0"
           sodipodi:nodetypes="sssccsssccscsssccsssccsssccscccscccccssssccscscccsssssscscc" />
        <circle
           id="circle4177"
           r="2"
           cy="24.000999"
           cx="36" />
      </g>
    </g>
    <flowRoot
       xml:space="preserve"
       id="flowRoot4189"
       style="font-style:normal;font-weight:normal;font-size:40px;line-height:125%;font-family:sans-serif;letter-spacing:0px;word-spacing:0px;fill:#000000;fill-opacity:1;stroke:none;stroke-width:1px;stroke-linecap:butt;stroke-linejoin:miter;stroke-opacity:1"
       transform="matrix(5.3081283,0,0,5.3081283,-1551.5426,-1378.9423)"><flowRegion
         id="flowRegion4191"><rect
           id="rect4193"
           width="436"
           height="284"
           x="337"
           y="401.36221" /></flowRegion><flowPara
         id="flowPara4195"
         style="font-style:normal;font-variant:normal;font-weight:normal;font-stretch:normal;font-family:Trattatello;-inkscape-font-specification:Trattatello">Rooster</flowPara></flowRoot>    <flowRoot
       xml:space="preserve"
       id="flowRoot4197"
       style="font-style:normal;font-weight:normal;font-size:40px;line-height:125%;font-family:sans-serif;letter-spacing:0px;word-spacing:0px;fill:#000000;fill-opacity:1;stroke:none;stroke-width:1px;stroke-linecap:butt;stroke-linejoin:miter;stroke-opacity:1"
       transform="matrix(2.1234498,0,0,2.1234498,-97.14669,734.98625)"><flowRegion
         id="flowRegion4199"><rect
           id="rect4201"
           width="372.64526"
           height="98.287842"
           x="118.08683"
           y="102.62385" /></flowRegion><flowPara
         style="font-style:normal;font-variant:normal;font-weight:normal;font-stretch:normal;font-size:15px;font-family:'PT Mono';-inkscape-font-specification:'PT Mono'"
         id="flowPara4205">The future of scheduling is now.</flowPara></flowRoot>    <text
       xml:space="preserve"
       style="font-style:normal;font-weight:normal;font-size:85.24308014px;line-height:125%;font-family:sans-serif;letter-spacing:0px;word-spacing:0px;fill:#eeeeec;fill-opacity:1;stroke:none;stroke-width:1px;stroke-linecap:butt;stroke-linejoin:miter;stroke-opacity:1"
       x="2.421437"
       y="1020.6539"
       id="text4209"
       sodipodi:linespacing="125%"><tspan
         sodipodi:role="line"
         id="tspan4211"
         x="2.421437"
         y="1020.6539"
         style="font-size:10.65538502px;fill:#eeeeec">Icon © RNS Fonts</tspan><tspan
         sodipodi:role="line"
         x="2.421437"
         y="1033.9731"
         style="font-size:10.65538502px;fill:#eeeeec"
         id="tspan4215">CC BY 3.0</tspan><tspan
         sodipodi:role="line"
         x="2.421437"
         y="1047.2924"
         style="font-size:10.65538502px;fill:#eeeeec"
         id="tspan4213">iconfinder.com/icons/390471/forecast_north_rooster_vane_weather_wind_icon</tspan></text>
  </g>
</svg>
